<mxfile host="app.diagrams.net" modified="2022-07-07T07:16:49.959Z" agent="5.0 (Windows NT 10.0; Win64; x64) AppleWebKit/537.36 (KHTML, like Gecko) Chrome/103.0.0.0 Safari/537.36" etag="QIN-Ag0JSMvE4fPMUOAD" version="20.0.4" type="github">
  <diagram id="pxexyfN3XSNUJFIJtdDi" name="第 1 页">
    <mxGraphModel dx="1038" dy="1374" grid="1" gridSize="10" guides="1" tooltips="1" connect="1" arrows="1" fold="1" page="1" pageScale="1" pageWidth="1169" pageHeight="827" math="0" shadow="0">
      <root>
        <mxCell id="0" />
        <mxCell id="1" parent="0" />
        <mxCell id="ffjr3FnTsFDP60dXyX2m-15" style="edgeStyle=orthogonalEdgeStyle;rounded=0;orthogonalLoop=1;jettySize=auto;html=1;exitX=1;exitY=0.5;exitDx=0;exitDy=0;entryX=0;entryY=0.5;entryDx=0;entryDy=0;" edge="1" parent="1" source="ffjr3FnTsFDP60dXyX2m-1" target="ffjr3FnTsFDP60dXyX2m-2">
          <mxGeometry relative="1" as="geometry" />
        </mxCell>
        <mxCell id="ffjr3FnTsFDP60dXyX2m-1" value="createBean" style="rounded=1;whiteSpace=wrap;html=1;strokeWidth=2;fillWeight=4;hachureGap=8;hachureAngle=45;fillColor=#dae8fc;sketch=1;strokeColor=#6c8ebf;" vertex="1" parent="1">
          <mxGeometry x="40" y="120" width="120" height="60" as="geometry" />
        </mxCell>
        <mxCell id="ffjr3FnTsFDP60dXyX2m-35" style="edgeStyle=none;rounded=0;orthogonalLoop=1;jettySize=auto;html=1;exitX=0.5;exitY=0;exitDx=0;exitDy=0;entryX=0.443;entryY=1;entryDx=0;entryDy=0;entryPerimeter=0;" edge="1" parent="1" source="ffjr3FnTsFDP60dXyX2m-2" target="ffjr3FnTsFDP60dXyX2m-3">
          <mxGeometry relative="1" as="geometry" />
        </mxCell>
        <mxCell id="ffjr3FnTsFDP60dXyX2m-2" value="doCreateBean" style="rounded=1;whiteSpace=wrap;html=1;strokeWidth=2;fillWeight=4;hachureGap=8;hachureAngle=45;fillColor=#dae8fc;sketch=1;strokeColor=#6c8ebf;" vertex="1" parent="1">
          <mxGeometry x="190" y="120" width="120" height="60" as="geometry" />
        </mxCell>
        <mxCell id="ffjr3FnTsFDP60dXyX2m-12" style="edgeStyle=orthogonalEdgeStyle;rounded=0;orthogonalLoop=1;jettySize=auto;html=1;exitX=1;exitY=0.5;exitDx=0;exitDy=0;entryX=0;entryY=0.5;entryDx=0;entryDy=0;" edge="1" parent="1" source="ffjr3FnTsFDP60dXyX2m-3" target="ffjr3FnTsFDP60dXyX2m-6">
          <mxGeometry relative="1" as="geometry" />
        </mxCell>
        <mxCell id="ffjr3FnTsFDP60dXyX2m-3" value="createBeanInstance" style="rounded=1;whiteSpace=wrap;html=1;strokeWidth=2;fillWeight=4;hachureGap=8;hachureAngle=45;fillColor=#f8cecc;sketch=1;strokeColor=#b85450;" vertex="1" parent="1">
          <mxGeometry x="40" width="120" height="60" as="geometry" />
        </mxCell>
        <mxCell id="ffjr3FnTsFDP60dXyX2m-5" value="反射实例化对象&lt;br&gt;无属性值" style="ellipse;whiteSpace=wrap;html=1;strokeWidth=2;fillWeight=2;hachureGap=8;fillColor=#fff2cc;fillStyle=dots;sketch=1;strokeColor=#d6b656;" vertex="1" parent="1">
          <mxGeometry x="270" y="-70" width="120" height="60" as="geometry" />
        </mxCell>
        <mxCell id="ffjr3FnTsFDP60dXyX2m-13" style="edgeStyle=orthogonalEdgeStyle;rounded=0;orthogonalLoop=1;jettySize=auto;html=1;exitX=1;exitY=0.5;exitDx=0;exitDy=0;entryX=0;entryY=0.5;entryDx=0;entryDy=0;" edge="1" parent="1" source="ffjr3FnTsFDP60dXyX2m-6" target="ffjr3FnTsFDP60dXyX2m-7">
          <mxGeometry relative="1" as="geometry" />
        </mxCell>
        <mxCell id="ffjr3FnTsFDP60dXyX2m-6" value="instantiateBean" style="rounded=1;whiteSpace=wrap;html=1;strokeWidth=2;fillWeight=4;hachureGap=8;hachureAngle=45;fillColor=#f8cecc;sketch=1;strokeColor=#b85450;" vertex="1" parent="1">
          <mxGeometry x="190" width="120" height="60" as="geometry" />
        </mxCell>
        <mxCell id="ffjr3FnTsFDP60dXyX2m-14" style="edgeStyle=orthogonalEdgeStyle;rounded=0;orthogonalLoop=1;jettySize=auto;html=1;exitX=1;exitY=0.5;exitDx=0;exitDy=0;" edge="1" parent="1" source="ffjr3FnTsFDP60dXyX2m-7" target="ffjr3FnTsFDP60dXyX2m-9">
          <mxGeometry relative="1" as="geometry" />
        </mxCell>
        <mxCell id="ffjr3FnTsFDP60dXyX2m-7" value="instantiate" style="rounded=1;whiteSpace=wrap;html=1;strokeWidth=2;fillWeight=4;hachureGap=8;hachureAngle=45;fillColor=#f8cecc;sketch=1;strokeColor=#b85450;" vertex="1" parent="1">
          <mxGeometry x="360" width="120" height="60" as="geometry" />
        </mxCell>
        <mxCell id="ffjr3FnTsFDP60dXyX2m-36" style="edgeStyle=none;rounded=0;orthogonalLoop=1;jettySize=auto;html=1;exitX=0.5;exitY=1;exitDx=0;exitDy=0;entryX=0.5;entryY=0;entryDx=0;entryDy=0;" edge="1" parent="1" source="ffjr3FnTsFDP60dXyX2m-9" target="ffjr3FnTsFDP60dXyX2m-17">
          <mxGeometry relative="1" as="geometry" />
        </mxCell>
        <mxCell id="ffjr3FnTsFDP60dXyX2m-9" value="instantiateClass" style="rounded=1;whiteSpace=wrap;html=1;strokeWidth=2;fillWeight=4;hachureGap=8;hachureAngle=45;fillColor=#f8cecc;sketch=1;strokeColor=#b85450;" vertex="1" parent="1">
          <mxGeometry x="510" width="120" height="60" as="geometry" />
        </mxCell>
        <mxCell id="ffjr3FnTsFDP60dXyX2m-20" style="edgeStyle=none;rounded=0;orthogonalLoop=1;jettySize=auto;html=1;exitX=1;exitY=0.5;exitDx=0;exitDy=0;" edge="1" parent="1" source="ffjr3FnTsFDP60dXyX2m-17" target="ffjr3FnTsFDP60dXyX2m-19">
          <mxGeometry relative="1" as="geometry" />
        </mxCell>
        <mxCell id="ffjr3FnTsFDP60dXyX2m-17" value="populateBean" style="rounded=1;whiteSpace=wrap;html=1;strokeWidth=2;fillWeight=4;hachureGap=8;hachureAngle=45;fillColor=#dae8fc;sketch=1;strokeColor=#6c8ebf;" vertex="1" parent="1">
          <mxGeometry x="360" y="120" width="120" height="60" as="geometry" />
        </mxCell>
        <mxCell id="ffjr3FnTsFDP60dXyX2m-37" style="edgeStyle=none;rounded=0;orthogonalLoop=1;jettySize=auto;html=1;exitX=1;exitY=0.5;exitDx=0;exitDy=0;entryX=0;entryY=0.5;entryDx=0;entryDy=0;" edge="1" parent="1" source="ffjr3FnTsFDP60dXyX2m-19" target="ffjr3FnTsFDP60dXyX2m-21">
          <mxGeometry relative="1" as="geometry" />
        </mxCell>
        <mxCell id="ffjr3FnTsFDP60dXyX2m-19" value="initializeBean" style="rounded=1;whiteSpace=wrap;html=1;strokeWidth=2;fillWeight=4;hachureGap=8;hachureAngle=45;fillColor=#dae8fc;sketch=1;strokeColor=#6c8ebf;" vertex="1" parent="1">
          <mxGeometry x="510" y="120" width="120" height="60" as="geometry" />
        </mxCell>
        <mxCell id="ffjr3FnTsFDP60dXyX2m-22" style="edgeStyle=none;rounded=0;orthogonalLoop=1;jettySize=auto;html=1;exitX=0.5;exitY=1;exitDx=0;exitDy=0;entryX=0.42;entryY=-0.053;entryDx=0;entryDy=0;entryPerimeter=0;" edge="1" parent="1" source="ffjr3FnTsFDP60dXyX2m-21" target="ffjr3FnTsFDP60dXyX2m-23">
          <mxGeometry relative="1" as="geometry">
            <mxPoint x="750" y="230" as="targetPoint" />
          </mxGeometry>
        </mxCell>
        <mxCell id="ffjr3FnTsFDP60dXyX2m-21" value="invokeAwareMethods" style="rounded=1;whiteSpace=wrap;html=1;strokeWidth=2;fillWeight=4;hachureGap=8;hachureAngle=45;fillColor=#dae8fc;sketch=1;strokeColor=#6c8ebf;" vertex="1" parent="1">
          <mxGeometry x="660" y="120" width="120" height="60" as="geometry" />
        </mxCell>
        <mxCell id="ffjr3FnTsFDP60dXyX2m-43" style="edgeStyle=none;rounded=0;orthogonalLoop=1;jettySize=auto;html=1;exitX=0;exitY=0.5;exitDx=0;exitDy=0;entryX=1;entryY=0.5;entryDx=0;entryDy=0;" edge="1" parent="1" source="ffjr3FnTsFDP60dXyX2m-23" target="ffjr3FnTsFDP60dXyX2m-31">
          <mxGeometry relative="1" as="geometry" />
        </mxCell>
        <mxCell id="ffjr3FnTsFDP60dXyX2m-46" style="edgeStyle=none;rounded=0;orthogonalLoop=1;jettySize=auto;html=1;exitX=0.5;exitY=1;exitDx=0;exitDy=0;entryX=0.663;entryY=0.053;entryDx=0;entryDy=0;entryPerimeter=0;" edge="1" parent="1" source="ffjr3FnTsFDP60dXyX2m-23" target="ffjr3FnTsFDP60dXyX2m-25">
          <mxGeometry relative="1" as="geometry" />
        </mxCell>
        <mxCell id="ffjr3FnTsFDP60dXyX2m-47" style="edgeStyle=none;rounded=0;orthogonalLoop=1;jettySize=auto;html=1;exitX=0.5;exitY=1;exitDx=0;exitDy=0;entryX=0.447;entryY=0;entryDx=0;entryDy=0;entryPerimeter=0;" edge="1" parent="1" source="ffjr3FnTsFDP60dXyX2m-23" target="ffjr3FnTsFDP60dXyX2m-27">
          <mxGeometry relative="1" as="geometry" />
        </mxCell>
        <mxCell id="ffjr3FnTsFDP60dXyX2m-48" style="edgeStyle=none;rounded=0;orthogonalLoop=1;jettySize=auto;html=1;exitX=0.5;exitY=1;exitDx=0;exitDy=0;entryX=0.5;entryY=0;entryDx=0;entryDy=0;" edge="1" parent="1" source="ffjr3FnTsFDP60dXyX2m-23" target="ffjr3FnTsFDP60dXyX2m-28">
          <mxGeometry relative="1" as="geometry" />
        </mxCell>
        <mxCell id="ffjr3FnTsFDP60dXyX2m-23" value="invokeAware" style="rounded=1;whiteSpace=wrap;html=1;strokeWidth=2;fillWeight=4;hachureGap=8;hachureAngle=45;fillColor=#dae8fc;sketch=1;strokeColor=#6c8ebf;" vertex="1" parent="1">
          <mxGeometry x="640" y="240" width="120" height="60" as="geometry" />
        </mxCell>
        <mxCell id="ffjr3FnTsFDP60dXyX2m-25" value="BeanNameAware&lt;span style=&quot;color: rgba(0, 0, 0, 0); font-family: monospace; font-size: 0px; text-align: start;&quot;&gt;%3CmxGraphModel%3E%3Croot%3E%3CmxCell%20id%3D%220%22%2F%3E%3CmxCell%20id%3D%221%22%20parent%3D%220%22%2F%3E%3CmxCell%20id%3D%222%22%20value%3D%22invokeAwareMethods%22%20style%3D%22rounded%3D1%3BwhiteSpace%3Dwrap%3Bhtml%3D1%3BstrokeWidth%3D2%3BfillWeight%3D4%3BhachureGap%3D8%3BhachureAngle%3D45%3BfillColor%3D%23dae8fc%3Bsketch%3D1%3BstrokeColor%3D%236c8ebf%3B%22%20vertex%3D%221%22%20parent%3D%221%22%3E%3CmxGeometry%20x%3D%22690%22%20y%3D%22120%22%20width%3D%22120%22%20height%3D%2260%22%20as%3D%22geometry%22%2F%3E%3C%2FmxCell%3E%3C%2Froot%3E%3C%2FmxGraphModel%3E&lt;/span&gt;" style="ellipse;whiteSpace=wrap;html=1;strokeWidth=2;fillWeight=2;hachureGap=8;fillColor=#e1d5e7;fillStyle=dots;sketch=1;strokeColor=#9673a6;" vertex="1" parent="1">
          <mxGeometry x="490" y="340" width="120" height="60" as="geometry" />
        </mxCell>
        <mxCell id="ffjr3FnTsFDP60dXyX2m-27" value="BeanFactoryAware&lt;span style=&quot;color: rgba(0, 0, 0, 0); font-family: monospace; font-size: 0px; text-align: start;&quot;&gt;%3CmxGraphModel%3E%3Croot%3E%3CmxCell%20id%3D%220%22%2F%3E%3CmxCell%20id%3D%221%22%20parent%3D%220%22%2F%3E%3CmxCell%20id%3D%222%22%20value%3D%22invokeAwareMethods%22%20style%3D%22rounded%3D1%3BwhiteSpace%3Dwrap%3Bhtml%3D1%3BstrokeWidth%3D2%3BfillWeight%3D4%3BhachureGap%3D8%3BhachureAngle%3D45%3BfillColor%3D%23dae8fc%3Bsketch%3D1%3BstrokeColor%3D%236c8ebf%3B%22%20vertex%3D%221%22%20parent%3D%221%22%3E%3CmxGeometry%20x%3D%22690%22%20y%3D%22120%22%20width%3D%22120%22%20height%3D%2260%22%20as%3D%22geometry%22%2F%3E%3C%2FmxCell%3E%3C%2Froot%3E%3C%2FmxGraphModel%3E&lt;/span&gt;" style="ellipse;whiteSpace=wrap;html=1;strokeWidth=2;fillWeight=2;hachureGap=8;fillColor=#e1d5e7;fillStyle=dots;sketch=1;strokeColor=#9673a6;" vertex="1" parent="1">
          <mxGeometry x="630" y="340" width="120" height="60" as="geometry" />
        </mxCell>
        <mxCell id="ffjr3FnTsFDP60dXyX2m-28" value="BeanClassLoaderAware&lt;span style=&quot;color: rgba(0, 0, 0, 0); font-family: monospace; font-size: 0px; text-align: start;&quot;&gt;%3CmxGraphModel%3E%3Croot%3E%3CmxCell%20id%3D%220%22%2F%3E%3CmxCell%20id%3D%221%22%20parent%3D%220%22%2F%3E%3CmxCell%20id%3D%222%22%20value%3D%22invokeAwareMethods%22%20style%3D%22rounded%3D1%3BwhiteSpace%3Dwrap%3Bhtml%3D1%3BstrokeWidth%3D2%3BfillWeight%3D4%3BhachureGap%3D8%3BhachureAngle%3D45%3BfillColor%3D%23dae8fc%3Bsketch%3D1%3BstrokeColor%3D%236c8ebf%3B%22%20vertex%3D%221%22%20parent%3D%221%22%3E%3CmxGeometry%20x%3D%22690%22%20y%3D%22120%22%20width%3D%22120%22%20height%3D%2260%22%20as%3D%22geometry%22%2F%3E%3C%2FmxCell%3E%3C%2Froot%3E%3C%2FmxGraphModel%3E&lt;/span&gt;" style="ellipse;whiteSpace=wrap;html=1;strokeWidth=2;fillWeight=2;hachureGap=8;fillColor=#e1d5e7;fillStyle=dots;sketch=1;strokeColor=#9673a6;" vertex="1" parent="1">
          <mxGeometry x="760" y="340" width="140" height="60" as="geometry" />
        </mxCell>
        <mxCell id="ffjr3FnTsFDP60dXyX2m-44" style="edgeStyle=none;rounded=0;orthogonalLoop=1;jettySize=auto;html=1;exitX=0;exitY=0.5;exitDx=0;exitDy=0;" edge="1" parent="1" source="ffjr3FnTsFDP60dXyX2m-31" target="ffjr3FnTsFDP60dXyX2m-32">
          <mxGeometry relative="1" as="geometry" />
        </mxCell>
        <mxCell id="ffjr3FnTsFDP60dXyX2m-31" value="before后置处理器" style="rounded=1;whiteSpace=wrap;html=1;strokeWidth=2;fillWeight=4;hachureGap=8;hachureAngle=45;fillColor=#dae8fc;sketch=1;strokeColor=#6c8ebf;" vertex="1" parent="1">
          <mxGeometry x="470" y="240" width="120" height="60" as="geometry" />
        </mxCell>
        <mxCell id="ffjr3FnTsFDP60dXyX2m-45" style="edgeStyle=none;rounded=0;orthogonalLoop=1;jettySize=auto;html=1;exitX=0;exitY=0.5;exitDx=0;exitDy=0;entryX=1;entryY=0.5;entryDx=0;entryDy=0;" edge="1" parent="1" source="ffjr3FnTsFDP60dXyX2m-32" target="ffjr3FnTsFDP60dXyX2m-33">
          <mxGeometry relative="1" as="geometry" />
        </mxCell>
        <mxCell id="ffjr3FnTsFDP60dXyX2m-32" value="invokeAwareInterface" style="rounded=1;whiteSpace=wrap;html=1;strokeWidth=2;fillWeight=4;hachureGap=8;hachureAngle=45;fillColor=#dae8fc;sketch=1;strokeColor=#6c8ebf;" vertex="1" parent="1">
          <mxGeometry x="310" y="240" width="120" height="60" as="geometry" />
        </mxCell>
        <mxCell id="ffjr3FnTsFDP60dXyX2m-33" value="after后置处理器" style="rounded=1;whiteSpace=wrap;html=1;strokeWidth=2;fillWeight=4;hachureGap=8;hachureAngle=45;fillColor=#dae8fc;sketch=1;strokeColor=#6c8ebf;" vertex="1" parent="1">
          <mxGeometry x="150" y="240" width="120" height="60" as="geometry" />
        </mxCell>
        <mxCell id="ffjr3FnTsFDP60dXyX2m-41" value="beanFactory属性赋值" style="ellipse;whiteSpace=wrap;html=1;strokeWidth=2;fillWeight=2;hachureGap=8;fillColor=#fff2cc;fillStyle=dots;sketch=1;strokeColor=#d6b656;" vertex="1" parent="1">
          <mxGeometry x="780" y="240" width="120" height="60" as="geometry" />
        </mxCell>
        <mxCell id="ffjr3FnTsFDP60dXyX2m-42" value="ApplicationContext赋值" style="ellipse;whiteSpace=wrap;html=1;strokeWidth=2;fillWeight=2;hachureGap=8;fillColor=#fff2cc;fillStyle=dots;sketch=1;strokeColor=#d6b656;" vertex="1" parent="1">
          <mxGeometry x="305" y="320" width="130" height="60" as="geometry" />
        </mxCell>
      </root>
    </mxGraphModel>
  </diagram>
</mxfile>
